<?xml version="1.0" encoding="UTF-8"?>
<svg width="512px" height="512px" viewBox="0 0 512 512" version="1.1" xmlns="http://www.w3.org/2000/svg" xmlns:xlink="http://www.w3.org/1999/xlink">
    <title>botmate-logo copy 2</title>
    <g id="botmate-logo-copy-2" stroke="none" stroke-width="1" fill="none" fill-rule="evenodd">
        <path d="M404.469,43 C439.556202,43 468,71.4437976 468,106.531 L468,130.749 C468,134.219469 467.72173,137.624944 467.186285,140.94433 L467.185115,406.469 C467.185115,441.556202 438.741317,470 403.654115,470 L379.147412,470 C344.06021,470 315.616412,441.556202 315.616412,406.469 L315.616,194.28 L104.531,194.28 C69.4437976,194.28 41,165.836202 41,130.749 L41,106.531 C41,71.4437976 69.4437976,43 104.531,43 L404.469,43 Z M151.824427,247.96 C213.031069,247.96 262.648855,297.483276 262.648855,358.573333 C262.648855,419.66339 213.031069,469.186667 151.824427,469.186667 C90.6177863,469.186667 41,419.66339 41,358.573333 C41,297.483276 90.6177863,247.96 151.824427,247.96 Z" id="BotMate-Logo" fill="#B0BCFF"></path>
    </g>
</svg>